<svg xmlns="http://www.w3.org/2000/svg" version="1.1" xmlns:xlink="http://www.w3.org/1999/xlink"
     xmlnssvgjs="http://svgjs.dev/svgjs" width="230" height="40" viewBox="0 0 230 40">
    <g transform="matrix(1,0,0,1,-0.9090909090911055,-0.8765101703205715)">
        <svg viewBox="0 0 396 66" data-background-color="#ffffff" preserveAspectRatio="xMidYMid meet" height="40"
             width="230" xmlns="http://www.w3.org/2000/svg" xmlns:xlink="http://www.w3.org/1999/xlink">
            <g id="t1111ight-bounds" transform="matrix(1,0,0,1,0.24000000000003752,0.23139868496463123)">
                <svg viewBox="0 0 395.5199999999999 65.53720263007072" height="65.53720263007072"
                     width="395.5199999999999">
                    <g>
                        <svg viewBox="0 0 466.75283320628637 77.34039999999999" height="65.53720263007072"
                             width="395.5199999999999">
                            <g>
                                <svg viewBox="0 0 466.75283320628637 77.34039999999999" height="77.34039999999999"
                                     width="466.75283320628637">
                                    <g id="textblocktransform">
                                        <svg viewBox="0 0 466.75283320628637 77.34039999999999"
                                             height="77.34039999999999" width="466.75283320628637" id="textblock">
                                            <g>
                                                <svg viewBox="0 0 466.75283320628637 77.34039999999999"
                                                     height="77.34039999999999" width="466.75283320628637">
                                                    <g>
                                                        <svg>
                                                            <g></g>
                                                            <g></g>
                                                        </svg>
                                                    </g>
                                                    <g>
                                                        <svg>
                                                            <g></g>
                                                            <g>
                                                                <svg></svg>
                                                            </g>
                                                        </svg>
                                                    </g>
                                                    <g id="text-0">
                                                        <svg viewBox="0 0 466.75283320628637 77.34039999999999"
                                                             height="77.34039999999999" width="466.75283320628637">
                                                            <g transform="matrix(1,0,0,1,0,14.770199999999996)">
                                                                <svg width="223.78333206176757"
                                                                     viewBox="2.25 -34 223.76333333333335 47.8"
                                                                     height="47.8" data-palette-color="#4d1927">
                                                                    <path d="M14.05 0.65L14.05 0.65Q10.5 0.65 7.83-0.95 5.15-2.55 3.7-5.5 2.25-8.45 2.25-12.5L2.25-12.5Q2.25-16.35 3.5-19.9 4.75-23.45 7.1-26.25 9.45-29.05 12.75-30.7 16.05-32.35 20.2-32.35L20.2-32.35Q23.3-32.35 25.3-31.4 27.3-30.45 27.3-28.6L27.3-28.6Q27.3-27.7 26.83-26.83 26.35-25.95 25.6-25.35 24.85-24.75 24.05-24.75L24.05-24.75Q23.55-24.75 23.25-25L23.25-25Q21.9-25.9 20.6-26.33 19.3-26.75 17.6-26.75L17.6-26.75Q14.05-26.75 11.6-25.13 9.15-23.5 7.88-20.85 6.6-18.2 6.6-15.1L6.6-15.1Q6.6-12.1 7.75-9.8 8.9-7.5 10.95-6.2 13-4.9 15.75-4.9L15.75-4.9Q17.95-4.9 20.03-5.78 22.1-6.65 23.7-8.2L23.7-8.2Q24.4-8.85 25.1-8.85L25.1-8.85Q25.7-8.85 25.95-8.35 26.2-7.85 26.2-7.35L26.2-7.35Q26.2-6.5 25.7-5.43 25.2-4.35 24.15-3.3L24.15-3.3Q22.3-1.45 19.6-0.4 16.9 0.65 14.05 0.65ZM32.3 0.55L32.3 0.55Q31.6 0.55 31.1 0.23 30.6-0.1 30.7-0.65L30.7-0.65Q31.45-4.65 31.97-8.78 32.5-12.9 32.5-17.1L32.5-17.1Q32.5-20.8 32.25-23.8 32-26.8 30.65-29.55L30.65-29.55Q30.4-30.1 30.25-30.5 30.1-30.9 30.1-31.25L30.1-31.25Q30.1-32.2 31.22-33.1 32.35-34 33.6-34L33.6-34Q35.35-34 36-31.8 36.65-29.6 36.65-25.3L36.65-25.3Q36.65-20.15 36.05-16.32 35.45-12.5 35-10.5L35-10.5 35.2-10.4Q36.2-13.05 37.62-15.35 39.05-17.65 40.95-19.05 42.85-20.45 45.35-20.45L45.35-20.45Q48-20.45 49.37-18.85 50.75-17.25 50.75-14.9L50.75-14.9Q50.75-13.9 50.55-12.98 50.35-12.05 50.1-11.2L50.1-11.2Q49.85-10.4 49.65-9.58 49.45-8.75 49.45-7.9L49.45-7.9Q49.45-6.35 50.2-5.38 50.95-4.4 52.2-4L52.2-4Q52.55-3.9 52.72-3.73 52.9-3.55 52.9-3.1L52.9-3.1Q52.9-2.65 52.6-1.8 52.3-0.95 51.5-0.23 50.7 0.5 49.15 0.5L49.15 0.5Q47.15 0.5 46.05-0.93 44.95-2.35 44.95-4.6L44.95-4.6Q44.95-5.7 45.17-6.85 45.4-8 45.7-9.05L45.7-9.05Q45.95-10.1 46.15-11.03 46.35-11.95 46.35-12.6L46.35-12.6Q46.35-14.9 43.95-14.9L43.95-14.9Q41.95-14.9 40.42-13.48 38.9-12.05 37.82-9.88 36.75-7.7 36.05-5.4L36.05-5.4 36.05-3.7Q36.05-1.85 34.97-0.65 33.9 0.55 32.3 0.55ZM64 0.65L64 0.65Q60.55 0.65 58.47-1.23 56.4-3.1 56.4-6.75L56.4-6.75Q56.4-8.45 56.87-10.05 57.35-11.65 58.15-13.05L58.15-13.05Q57.35-12.55 56.95-12.55L56.95-12.55Q56.35-12.55 56.12-13.23 55.9-13.9 55.9-14.55L55.9-14.55Q55.9-15.7 56.37-16.38 56.85-17.05 57.3-17.4L57.3-17.4Q58.35-18.3 60.6-19.38 62.85-20.45 66-20.45L66-20.45Q70.3-20.45 72.67-18.05 75.05-15.65 75.05-11.35L75.05-11.35Q75.05-8 73.65-5.28 72.25-2.55 69.77-0.95 67.3 0.65 64 0.65ZM65.55-4.45L65.55-4.45Q68.05-4.45 69.77-6.03 71.5-7.6 71.5-10.2L71.5-10.2Q71.5-12.9 69.75-14.05 68-15.2 65.7-15.2L65.7-15.2Q64.65-15.2 63.8-15 62.95-14.8 62.2-14.5L62.2-14.5Q61.5-13.5 60.95-12.25 60.4-11 60.4-9.5L60.4-9.5Q60.4-7 61.9-5.73 63.4-4.45 65.55-4.45ZM86.14 0.65L86.14 0.65Q82.64 0.65 80.67-1.48 78.69-3.6 78.69-7.4L78.69-7.4Q78.69-11.15 80.29-14.1 81.89-17.05 84.69-18.75 87.49-20.45 91.04-20.45L91.04-20.45Q93.44-20.45 94.84-19.65 96.24-18.85 96.24-17.45L96.24-17.45Q96.24-16.2 95.04-15L95.04-15Q94.59-14.55 93.87-14.18 93.14-13.8 92.74-13.8L92.74-13.8Q92.29-13.8 91.99-14.15L91.99-14.15Q91.49-14.7 90.69-15.2 89.89-15.7 88.44-15.7L88.44-15.7Q85.99-15.7 84.44-14.03 82.89-12.35 82.89-9.65L82.89-9.65Q82.89-7.2 84.29-5.7 85.69-4.2 87.99-4.2L87.99-4.2Q89.19-4.2 90.62-4.63 92.04-5.05 93.14-5.85L93.14-5.85Q93.69-6.35 94.29-6.35L94.29-6.35Q95.29-6.35 95.29-5.1L95.29-5.1Q95.29-3.45 93.64-1.95L93.64-1.95Q92.39-0.8 90.32-0.08 88.24 0.65 86.14 0.65ZM107.29 0.65L107.29 0.65Q103.84 0.65 101.77-1.23 99.69-3.1 99.69-6.75L99.69-6.75Q99.69-8.45 100.17-10.05 100.64-11.65 101.44-13.05L101.44-13.05Q100.64-12.55 100.24-12.55L100.24-12.55Q99.64-12.55 99.42-13.23 99.19-13.9 99.19-14.55L99.19-14.55Q99.19-15.7 99.67-16.38 100.14-17.05 100.59-17.4L100.59-17.4Q101.64-18.3 103.89-19.38 106.14-20.45 109.29-20.45L109.29-20.45Q113.59-20.45 115.97-18.05 118.34-15.65 118.34-11.35L118.34-11.35Q118.34-8 116.94-5.28 115.54-2.55 113.07-0.95 110.59 0.65 107.29 0.65ZM108.84-4.45L108.84-4.45Q111.34-4.45 113.07-6.03 114.79-7.6 114.79-10.2L114.79-10.2Q114.79-12.9 113.04-14.05 111.29-15.2 108.99-15.2L108.99-15.2Q107.94-15.2 107.09-15 106.24-14.8 105.49-14.5L105.49-14.5Q104.79-13.5 104.24-12.25 103.69-11 103.69-9.5L103.69-9.5Q103.69-7 105.19-5.73 106.69-4.45 108.84-4.45ZM131.04 0.6L131.04 0.6Q126.89 0.6 125.09-1.38 123.29-3.35 123.29-6.6L123.29-6.6Q123.29-7.45 123.44-8.65 123.59-9.85 123.84-11.55L123.84-11.55Q124.24-14 124.44-15.93 124.64-17.85 124.64-20.15L124.64-20.15Q124.64-22.8 124.49-24.45L124.49-24.45Q123.64-23.95 123.24-23.95L123.24-23.95Q122.44-23.95 122.44-25.75L122.44-25.75Q122.44-27.15 123.06-28.13 123.69-29.1 125.14-29.95L125.14-29.95Q126.59-30.85 128.81-31.5 131.04-32.15 133.59-32.15L133.59-32.15Q137.74-32.15 139.89-30.25 142.04-28.35 142.04-25.25L142.04-25.25Q142.04-23.25 141.19-21.55 140.34-19.85 138.79-18.55L138.79-18.55Q145.04-17.55 145.04-11.35L145.04-11.35Q145.04-8 143.14-5.25 141.24-2.5 137.99-0.95L137.99-0.95Q134.84 0.6 131.04 0.6ZM133.04-4.95L133.04-4.95Q135.29-4.95 137.11-5.58 138.94-6.2 140.04-7.4 141.14-8.6 141.14-10.2L141.14-10.2Q141.14-12.25 139.69-13.1 138.24-13.95 136.34-13.95L136.34-13.95Q135.54-13.95 134.34-13.8L134.34-13.8Q133.84-13.7 133.19-13.7L133.19-13.7Q132.09-13.7 131.36-14.6 130.64-15.5 130.64-16.85L130.64-16.85Q130.64-17.8 131.49-18.05L131.49-18.05Q137.59-19.65 137.59-23.6L137.59-23.6Q137.59-26.75 133.24-26.75L133.24-26.75Q131.64-26.75 129.29-26.2L129.29-26.2Q129.29-23.75 129.04-21.08 128.79-18.4 128.29-15.5L128.29-15.5Q127.99-13.5 127.81-12.13 127.64-10.75 127.64-9.9L127.64-9.9Q127.64-7.2 128.99-6.08 130.34-4.95 133.04-4.95ZM156.94 0.65L156.94 0.65Q153.13 0.65 151.01-1.53 148.88-3.7 148.88-7.6L148.88-7.6Q148.88-11.15 150.44-14.05 151.99-16.95 154.61-18.68 157.24-20.4 160.38-20.4L160.38-20.4Q163.38-20.4 165.19-18.93 166.99-17.45 166.99-15L166.99-15Q166.99-13.05 165.78-11.4 164.59-9.75 162.59-8.78 160.59-7.8 158.13-7.8L158.13-7.8Q155.13-7.8 153.24-9.15L153.24-9.15Q153.28-6.85 154.81-5.45 156.34-4.05 158.74-4.05L158.74-4.05Q160.19-4.05 161.71-4.58 163.24-5.1 164.34-6L164.34-6Q165.03-6.6 165.63-6.6L165.63-6.6Q166.13-6.6 166.46-6.28 166.78-5.95 166.78-5.45L166.78-5.45Q166.78-4.35 164.88-2.55L164.88-2.55Q161.53 0.65 156.94 0.65ZM157.69-11.1L157.69-11.1Q159.49-11.1 160.69-11.85 161.88-12.6 161.88-13.75L161.88-13.75Q161.88-14.7 161.09-15.23 160.28-15.75 158.88-15.75L158.88-15.75Q157.03-15.75 155.66-14.78 154.28-13.8 153.69-12.05L153.69-12.05Q154.38-11.6 155.49-11.35 156.59-11.1 157.69-11.1ZM173.83 0.55L173.83 0.55Q173.03 0.55 172.56 0.28 172.08 0 172.23-0.65L172.23-0.65Q172.78-2.8 173.16-5.03 173.53-7.25 173.53-9.3L173.53-9.3Q173.53-11.95 173.21-13.18 172.88-14.4 172.33-14.88 171.78-15.35 170.98-15.6L170.98-15.6Q170.63-15.75 170.36-16 170.08-16.25 170.08-16.7L170.08-16.7Q170.08-17.4 170.63-18.25 171.18-19.1 172.18-19.73 173.18-20.35 174.48-20.35L174.48-20.35Q176.18-20.35 176.86-19.18 177.53-18 177.53-16.1L177.53-16.1Q178.43-18.1 179.76-19.28 181.08-20.45 183.08-20.45L183.08-20.45Q184.43-20.45 185.33-19.85 186.23-19.25 186.23-17.9L186.23-17.9Q186.23-16.55 185.36-15.38 184.48-14.2 183.58-14.2L183.58-14.2Q183.43-14.2 183.23-14.25 183.03-14.3 182.88-14.5L182.88-14.5Q182.23-15.3 181.28-15.3L181.28-15.3Q179.83-15.3 178.73-13.4 177.63-11.5 177.53-8.15L177.53-8.15Q177.58-6.9 177.61-5.6 177.63-4.3 177.63-3.7L177.63-3.7Q177.63-1.85 176.61-0.65 175.58 0.55 173.83 0.55ZM190.78 0.55L190.78 0.55Q189.98 0.55 189.5 0.28 189.03 0 189.18-0.65L189.18-0.65Q189.73-2.8 190.1-5.03 190.48-7.25 190.48-9.3L190.48-9.3Q190.48-11.95 190.16-13.18 189.83-14.4 189.28-14.88 188.73-15.35 187.93-15.6L187.93-15.6Q187.58-15.75 187.31-16 187.03-16.25 187.03-16.7L187.03-16.7Q187.03-17.4 187.58-18.25 188.13-19.1 189.13-19.73 190.13-20.35 191.43-20.35L191.43-20.35Q193.13-20.35 193.81-19.18 194.48-18 194.48-16.1L194.48-16.1Q195.38-18.1 196.7-19.28 198.03-20.45 200.03-20.45L200.03-20.45Q201.38-20.45 202.28-19.85 203.18-19.25 203.18-17.9L203.18-17.9Q203.18-16.55 202.31-15.38 201.43-14.2 200.53-14.2L200.53-14.2Q200.38-14.2 200.18-14.25 199.98-14.3 199.83-14.5L199.83-14.5Q199.18-15.3 198.23-15.3L198.23-15.3Q196.78-15.3 195.68-13.4 194.58-11.5 194.48-8.15L194.48-8.15Q194.53-6.9 194.56-5.6 194.58-4.3 194.58-3.7L194.58-3.7Q194.58-1.85 193.56-0.65 192.53 0.55 190.78 0.55ZM206.88 13.8L206.88 13.8Q204.83 13.8 203.35 12.7 201.88 11.6 201.88 9.75L201.88 9.75Q201.88 8.3 202.75 7.28 203.63 6.25 204.93 6.25L204.93 6.25Q205.53 6.25 205.78 6.45 206.03 6.65 206.18 6.9L206.18 6.9Q206.58 7.55 207.1 8.03 207.63 8.5 208.53 8.5L208.53 8.5Q209.73 8.5 210.85 7.65 211.98 6.8 212.93 5.7L212.93 5.7Q213.78 4.75 214.98 2.98 216.18 1.2 217.38-1.05L217.38-1.05Q216.28-0.1 215.33 0.33 214.38 0.75 213.53 0.75L213.53 0.75Q212.48 0.75 211.48-0.03 210.48-0.8 210.23-2.95L210.23-2.95Q210.08-4.6 209.65-6.6 209.23-8.6 208.6-10.48 207.98-12.35 207.08-13.65L207.08-13.65Q206.73-14.25 206.28-14.55 205.83-14.85 204.98-14.95L204.98-14.95Q204.38-15 204.2-15.3 204.03-15.6 204.03-16.25L204.03-16.25Q204.03-18.05 205.03-19.15 206.03-20.25 207.73-20.25L207.73-20.25Q209.78-20.25 210.68-18.68 211.58-17.1 212.23-14.85L212.23-14.85Q212.48-13.95 212.75-12.48 213.03-11 213.25-9.3 213.48-7.6 213.58-6.05L213.58-6.05Q213.63-4.95 214.83-4.95L214.83-4.95Q216.43-4.95 217.88-5.95 219.33-6.95 220.25-8.55 221.18-10.15 221.18-11.9L221.18-11.9Q221.18-12.9 220.93-13.7 220.68-14.5 220.08-15.1L220.08-15.1Q219.58-15.7 219.28-16.07 218.98-16.45 218.98-16.95L218.98-16.95Q218.98-17.8 219.78-18.55 220.58-19.3 221.7-19.8 222.83-20.3 223.68-20.3L223.68-20.3Q225.18-20.3 225.68-18.88 226.18-17.45 225.93-15.75L225.93-15.75Q225.63-13.4 224.73-10.2 223.83-7 222.4-3.5 220.98 0 219.15 3.28 217.33 6.55 215.28 9L215.28 9Q213.53 11.15 211.38 12.48 209.23 13.8 206.88 13.8Z"
                                                                          opacity="1" transform="matrix(1,0,0,1,0,0)"
                                                                          fill="#4d1927" class="undefined-yy-0"></path>
                                                                </svg>
                                                            </g>
                                                            <g>
                                                                <svg xmlns="http://www.w3.org/2000/svg" xmlns:xlink="http://www.w3.org/1999/xlink" version="1.1" x="242.04293206176757" y="0" viewBox="19.668638163997684 3.89 60.66269936883778 91.1" enable-background="new 0 0 100 100" xml:space="preserve" height="77.34039999999999" width="51.50030114451878" class="icon-cg-0" data-fill-palette-color="accent" id="cg-0"><polygon points="77.991,31.496 71.363,33.172 28.637,33.172 22.009,31.496 35.155,27.205 26.034,14.268 44.585,20.588 49.979,3.89   55.415,20.588 73.967,14.268 64.845,27.205 " fill="#fb2943" data-fill-palette-color="accent"></polygon><g
                                                                        fill="#fb2943" data-fill-palette-color="accent"><path d="M30.049 64.494c1.003 2.492 1.808 3.408 2.382 5.978 0.584-2.569 1.378-3.485 2.394-5.978 0.971-2.427-0.475-4.863-2.394-4.863C30.522 59.631 29.078 62.067 30.049 64.494zM65.176 64.494c1.015 2.492 1.81 3.408 2.394 5.978 0.573-2.569 1.378-3.485 2.382-5.978 0.971-2.427-0.474-4.863-2.382-4.863C65.65 59.631 64.205 62.067 65.176 64.494zM51.787 46.131c0.97-2.416-0.475-4.853-2.383-4.853-1.918 0-3.364 2.438-2.393 4.853 1.015 2.503 1.809 3.408 2.393 5.989C49.978 49.539 50.783 48.635 51.787 46.131zM56.927 55.318c1.015 2.493 1.809 3.408 2.393 5.979 0.573-2.57 1.379-3.485 2.383-5.979 0.971-2.426-0.475-4.864-2.383-4.864C57.4 50.455 55.956 52.893 56.927 55.318zM52.261 64.562c0.971-2.427-0.474-4.854-2.393-4.854-1.908 0-3.353 2.427-2.382 4.854 1.003 2.492 1.808 3.407 2.382 5.988C50.452 67.969 51.257 67.054 52.261 64.562zM73.117 46.131c0.98-2.416-0.464-4.853-2.383-4.853s-3.363 2.438-2.383 4.853c1.004 2.503 1.798 3.408 2.383 5.989C71.319 49.539 72.113 48.635 73.117 46.131zM47.618 82.913c1.004 2.492 1.798 3.408 2.382 5.988 0.584-2.58 1.379-3.496 2.383-5.988 0.98-2.416-0.464-4.854-2.383-4.854C48.081 78.06 46.636 80.497 47.618 82.913zM42.28 73.736c0.97-2.414-0.475-4.852-2.382-4.852-1.919 0-3.364 2.438-2.394 4.852 1.015 2.494 1.809 3.408 2.394 5.99C40.471 77.145 41.276 76.23 42.28 73.736zM38.298 55.318c1.003 2.493 1.809 3.408 2.382 5.979 0.585-2.57 1.379-3.485 2.394-5.979 0.97-2.426-0.475-4.864-2.394-4.864C38.772 50.455 37.327 52.893 38.298 55.318zM57.721 73.736c1.004 2.494 1.808 3.408 2.382 5.99 0.585-2.582 1.39-3.496 2.394-5.99 0.971-2.414-0.474-4.852-2.394-4.852C58.194 68.885 56.75 71.322 57.721 73.736zM26.883 46.131c1.003 2.503 1.797 3.408 2.382 5.989 0.584-2.581 1.378-3.485 2.382-5.989 0.982-2.416-0.463-4.853-2.382-4.853C27.346 41.278 25.901 43.716 26.883 46.131zM71.904 35.676c1.951 1.147 8.535 5.757 8.426 15.529C80.197 62.687 63.19 94.99 50 94.99c-13.191 0-30.197-32.304-30.33-43.785-0.11-9.772 6.475-14.382 8.427-15.529 0.342-0.199 0.54-0.298 0.54-0.298H50h21.363C71.363 35.378 71.562 35.477 71.904 35.676z" fill="#fb2943" data-fill-palette-color="accent"></path></g></svg>
                                                            </g>
                                                            <g transform="matrix(1,0,0,1,311.8028332062863,14.770199999999996)">
                                                                <svg width="154.95"
                                                                     viewBox="2.1499999999999995 -34 154.93 47.8"
                                                                     height="47.8" data-palette-color="#4d1927">
                                                                    <path d="M10.2 0.65L10.2 0.65Q8.35 0.65 6.8 0.3 5.25-0.05 4.25-1L4.25-1Q3.5-1.7 3.25-2.58 3-3.45 3-4.5L3-4.5Q3-6.2 3.3-7.9L3.3-7.9Q3.75-10.85 4.1-14.25 4.45-17.65 4.45-20.55L4.45-20.55Q4.45-21.45 4.38-22.6 4.3-23.75 4.15-24.75L4.15-24.75Q3.8-24.6 3.48-24.48 3.15-24.35 2.9-24.35L2.9-24.35Q2.45-24.35 2.3-24.8 2.15-25.25 2.15-25.8L2.15-25.8Q2.15-27.25 2.83-28.28 3.5-29.3 5.05-30.1L5.05-30.1Q6.7-31 9.38-31.68 12.05-32.35 14.8-32.35L14.8-32.35Q21.05-32.35 24.63-28.68 28.2-25 28.2-18.25L28.2-18.25Q28.2-14.4 27.03-10.98 25.85-7.55 23.55-4.93 21.25-2.3 17.9-0.83 14.55 0.65 10.2 0.65ZM11.8-4.95L11.8-4.95Q14.05-4.95 16.3-5.65 18.55-6.35 20.38-7.75 22.2-9.15 23.3-11.33 24.4-13.5 24.4-16.55L24.4-16.55Q24.4-20 23.05-22.25 21.7-24.5 19.45-25.6 17.2-26.7 14.45-26.7L14.45-26.7Q12.95-26.7 11.48-26.45 10-26.2 9.15-25.95L9.15-25.95Q9.1-23.65 8.88-21.48 8.65-19.3 8.35-17.25L8.35-17.25Q8.05-15.1 7.88-13.05 7.7-11 7.7-9L7.7-9Q7.7-6.5 8.72-5.73 9.75-4.95 11.8-4.95ZM39.15 0.65L39.15 0.65Q35.35 0.65 33.22-1.53 31.1-3.7 31.1-7.6L31.1-7.6Q31.1-11.15 32.65-14.05 34.2-16.95 36.82-18.68 39.45-20.4 42.6-20.4L42.6-20.4Q45.6-20.4 47.4-18.93 49.2-17.45 49.2-15L49.2-15Q49.2-13.05 48-11.4 46.8-9.75 44.8-8.78 42.8-7.8 40.35-7.8L40.35-7.8Q37.35-7.8 35.45-9.15L35.45-9.15Q35.5-6.85 37.02-5.45 38.55-4.05 40.95-4.05L40.95-4.05Q42.4-4.05 43.92-4.58 45.45-5.1 46.55-6L46.55-6Q47.25-6.6 47.85-6.6L47.85-6.6Q48.35-6.6 48.67-6.28 49-5.95 49-5.45L49-5.45Q49-4.35 47.1-2.55L47.1-2.55Q43.75 0.65 39.15 0.65ZM39.9-11.1L39.9-11.1Q41.7-11.1 42.9-11.85 44.1-12.6 44.1-13.75L44.1-13.75Q44.1-14.7 43.3-15.23 42.5-15.75 41.1-15.75L41.1-15.75Q39.25-15.75 37.87-14.78 36.5-13.8 35.9-12.05L35.9-12.05Q36.6-11.6 37.7-11.35 38.8-11.1 39.9-11.1ZM56.35 0.5L56.35 0.5Q54.9 0.5 54.2-0.3 53.5-1.1 53.5-3.1L53.5-3.1Q53.5-4.05 53.65-5.55 53.8-7.05 54-8.8L54-8.8Q54.3-10.95 54.52-13.3 54.75-15.65 54.75-17.8L54.75-17.8Q54.75-20.85 54.47-24.13 54.2-27.4 52.95-29.85L52.95-29.85Q52.5-30.85 52.5-31.3L52.5-31.3Q52.5-31.95 53.07-32.55 53.65-33.15 54.5-33.58 55.35-34 56.15-34L56.15-34Q57.45-34 58.1-32.83 58.75-31.65 58.95-29.63 59.15-27.6 59.15-25L59.15-25Q59.15-21.05 58.82-18.15 58.5-15.25 58.2-13.05L58.2-13.05Q58-11.6 57.82-10.3 57.65-9 57.65-7.95L57.65-7.95Q57.65-6.2 58.22-5.43 58.8-4.65 60.1-3.9L60.1-3.9Q60.45-3.7 60.62-3.53 60.8-3.35 60.8-3L60.8-3Q60.8-2.6 60.4-1.75 60-0.9 59.02-0.2 58.05 0.5 56.35 0.5ZM68.24-24.85L68.24-24.85Q66.84-24.9 65.99-25.7 65.14-26.5 65.14-27.95L65.14-27.95Q65.19-29.5 66.19-30.48 67.19-31.45 68.74-31.4L68.74-31.4Q70.19-31.35 71.02-30.55 71.84-29.75 71.79-28.3L71.79-28.3Q71.74-26.8 70.79-25.83 69.84-24.85 68.24-24.85ZM68.29 0.5L68.29 0.5Q66.79 0.5 65.94-0.33 65.09-1.15 65.09-3.15L65.09-3.15Q65.09-4.3 65.32-5.4 65.54-6.5 65.84-7.55L65.84-7.55Q66.19-8.65 66.42-9.8 66.64-10.95 66.64-12.25L66.64-12.25Q66.64-13.15 66.39-13.98 66.14-14.8 65.29-15.2L65.29-15.2Q64.64-15.55 64.17-15.93 63.69-16.3 63.69-16.9L63.69-16.9Q63.69-17.6 64.34-18.4 64.99-19.2 66.07-19.78 67.14-20.35 68.29-20.35L68.29-20.35Q69.54-20.35 70.12-19.7 70.69-19.05 70.89-18.05 71.09-17.05 71.09-16L71.09-16Q71.09-14.4 70.84-12.88 70.59-11.35 70.34-10.05L70.34-10.05Q70.14-9.1 70.04-8.3 69.94-7.5 69.94-6.8L69.94-6.8Q69.94-5.55 70.54-4.93 71.14-4.3 72.24-3.75L72.24-3.75Q72.69-3.5 72.69-3L72.69-3Q72.69-2.6 72.29-1.75 71.89-0.9 70.92-0.2 69.94 0.5 68.29 0.5ZM82.94 13.8L82.94 13.8Q79.19 13.8 76.99 12.25 74.79 10.7 74.79 8.25L74.79 8.25Q74.79 6.45 75.92 5.05 77.04 3.65 78.89 3.65L78.89 3.65Q79.94 3.65 79.94 4.25L79.94 4.25Q79.94 4.6 79.82 5.05 79.69 5.5 79.69 5.95L79.69 5.95Q79.69 7.35 81.29 8.03 82.89 8.7 85.14 8.7L85.14 8.7Q86.54 8.7 87.99 8.4 89.44 8.1 90.42 7.48 91.39 6.85 91.39 5.8L91.39 5.8Q91.39 4.65 90.24 4.1 89.09 3.55 87.34 3.28 85.59 3 83.77 2.78 81.94 2.55 80.64 2.05L80.64 2.05Q78.99 1.5 78.19 0.7 77.39-0.1 77.39-1.35L77.39-1.35Q77.39-3.7 80.24-5.1L80.24-5.1Q78.59-5.95 77.77-7.5 76.94-9.05 76.94-10.95L76.94-10.95Q76.94-13.4 78.22-15.55 79.49-17.7 82.02-19.07 84.54-20.45 88.34-20.45L88.34-20.45Q90.04-20.45 91.79-20.13 93.54-19.8 94.72-18.93 95.89-18.05 95.89-16.4L95.89-16.4Q95.89-15.8 95.64-15.08 95.39-14.35 94.69-14.35L94.69-14.35Q94.39-14.35 93.89-14.48 93.39-14.6 92.99-14.7L92.99-14.7Q93.09-14.2 93.17-13.6 93.24-13 93.24-12.35L93.24-12.35Q93.24-9.4 91.24-7.03 89.24-4.65 85.39-4.2L85.39-4.2Q83.99-4.1 83.32-3.88 82.64-3.65 82.64-3.1L82.64-3.1Q82.64-2.6 83.24-2.38 83.84-2.15 84.79-2.05L84.79-2.05Q87.84-1.8 90.19-1.2 92.54-0.6 93.87 0.73 95.19 2.05 95.19 4.5L95.19 4.5Q95.19 7.35 93.52 9.43 91.84 11.5 89.04 12.65 86.24 13.8 82.94 13.8ZM84.84-8.55L84.84-8.55Q87.14-8.55 88.44-9.8 89.74-11.05 89.74-13.05L89.74-13.05Q89.74-13.6 89.64-14.18 89.54-14.75 89.44-15.15L89.44-15.15Q88.64-15.4 87.89-15.48 87.14-15.55 86.44-15.55L86.44-15.55Q83.79-15.55 82.29-14.55 80.79-13.55 80.79-11.8L80.79-11.8Q80.79-10.25 81.89-9.4 82.99-8.55 84.84-8.55ZM100.49 0.55L100.49 0.55Q99.79 0.55 99.29 0.23 98.79-0.1 98.89-0.65L98.89-0.65Q99.64-4.65 100.16-8.78 100.69-12.9 100.69-17.1L100.69-17.1Q100.69-20.8 100.44-23.8 100.19-26.8 98.84-29.55L98.84-29.55Q98.59-30.1 98.44-30.5 98.29-30.9 98.29-31.25L98.29-31.25Q98.29-32.2 99.41-33.1 100.54-34 101.79-34L101.79-34Q103.54-34 104.19-31.8 104.84-29.6 104.84-25.3L104.84-25.3Q104.84-20.15 104.24-16.32 103.64-12.5 103.19-10.5L103.19-10.5 103.39-10.4Q104.39-13.05 105.81-15.35 107.24-17.65 109.14-19.05 111.04-20.45 113.54-20.45L113.54-20.45Q116.19-20.45 117.56-18.85 118.94-17.25 118.94-14.9L118.94-14.9Q118.94-13.9 118.74-12.98 118.54-12.05 118.29-11.2L118.29-11.2Q118.04-10.4 117.84-9.58 117.64-8.75 117.64-7.9L117.64-7.9Q117.64-6.35 118.39-5.38 119.14-4.4 120.39-4L120.39-4Q120.74-3.9 120.91-3.73 121.09-3.55 121.09-3.1L121.09-3.1Q121.09-2.65 120.79-1.8 120.49-0.95 119.69-0.23 118.89 0.5 117.34 0.5L117.34 0.5Q115.34 0.5 114.24-0.93 113.14-2.35 113.14-4.6L113.14-4.6Q113.14-5.7 113.36-6.85 113.59-8 113.89-9.05L113.89-9.05Q114.14-10.1 114.34-11.03 114.54-11.95 114.54-12.6L114.54-12.6Q114.54-14.9 112.14-14.9L112.14-14.9Q110.14-14.9 108.61-13.48 107.09-12.05 106.01-9.88 104.94-7.7 104.24-5.4L104.24-5.4 104.24-3.7Q104.24-1.85 103.16-0.65 102.09 0.55 100.49 0.55ZM131.59 0.65L131.59 0.65Q128.54 0.65 127.21-1.38 125.89-3.4 125.89-6.6L125.89-6.6Q125.89-7.75 126.01-8.85 126.14-9.95 126.29-11.05L126.29-11.05Q126.44-12.15 126.59-13.2 126.74-14.25 126.84-15.2L126.84-15.2Q125.79-14.9 124.74-14.9L124.74-14.9Q123.64-14.9 123.64-15.8L123.64-15.8Q123.64-16.75 124.49-18.13 125.34-19.5 126.61-20.85 127.89-22.2 129.16-23.13 130.44-24.05 131.34-24.05L131.34-24.05Q132.44-24.05 132.44-22.15L132.44-22.15Q132.44-21.65 132.36-21.13 132.29-20.6 132.19-20.05L132.19-20.05Q133.14-20.25 134.11-20.4 135.09-20.55 135.99-20.55L135.99-20.55Q137.14-20.55 137.76-20.15 138.39-19.75 138.39-18.6L138.39-18.6Q138.39-17.4 137.81-16.2 137.24-15 136.54-15L136.54-15Q136.39-15 136.04-15.05 135.69-15.1 135.19-15.2L135.19-15.2Q134.54-15.35 133.54-15.5 132.54-15.65 131.14-15.65L131.14-15.65Q130.79-14.1 130.51-12.48 130.24-10.85 130.24-9.55L130.24-9.55Q130.24-6.65 131.69-5.6 133.14-4.55 135.89-4.55L135.89-4.55Q136.74-4.55 137.09-4.28 137.44-4 137.44-3.3L137.44-3.3Q137.44-1.65 135.74-0.5 134.04 0.65 131.59 0.65ZM147.63 0.65L147.63 0.65Q145.78 0.65 144.18 0.1 142.58-0.45 141.58-1.45 140.58-2.45 140.58-3.85L140.58-3.85Q140.58-4.6 140.96-5.28 141.33-5.95 142.18-5.95L142.18-5.95Q142.63-5.95 143.13-5.7L143.13-5.7Q144.03-5.2 145.43-4.78 146.83-4.35 148.38-4.35L148.38-4.35Q150.13-4.35 151.48-4.85 152.83-5.35 152.83-6.25L152.83-6.25Q152.83-6.95 151.81-7.25 150.78-7.55 148.38-7.9L148.38-7.9Q146.73-8.2 145.18-8.6 143.63-9 142.63-9.98 141.63-10.95 141.63-12.85L141.63-12.85Q141.63-14.7 142.66-16.43 143.68-18.15 145.73-19.3 147.78-20.45 150.73-20.45L150.73-20.45Q152.28-20.45 153.73-20.1 155.18-19.75 156.13-19.05 157.08-18.35 157.08-17.3L157.08-17.3Q157.08-16.4 156.46-15.65 155.83-14.9 155.01-14.43 154.18-13.95 153.63-13.95L153.63-13.95Q153.23-13.95 152.68-14.5L152.68-14.5Q151.83-15.2 150.81-15.48 149.78-15.75 148.78-15.75L148.78-15.75Q147.28-15.75 146.36-15.3 145.43-14.85 145.43-14.15L145.43-14.15Q145.43-13.5 146.21-13.1 146.98-12.7 148.13-12.53 149.28-12.35 150.33-12.2L150.33-12.2Q153.23-11.8 154.93-10.83 156.63-9.85 156.63-7.4L156.63-7.4Q156.63-5.5 155.56-3.63 154.48-1.75 152.46-0.55 150.43 0.65 147.63 0.65Z"
                                                                          opacity="1" transform="matrix(1,0,0,1,0,0)"
                                                                          fill="#4d1927" class="undefined-yy-1"></path>
                                                                </svg>
                                                            </g>
                                                        </svg>
                                                    </g>
                                                </svg>
                                            </g>
                                        </svg>
                                    </g>
                                </svg>
                            </g>
                        </svg>
                    </g>
                    <defs></defs>
                </svg>
                <rect width="395.5199999999999" height="65.53720263007072" fill="none" stroke="none"
                      visibility="hidden"></rect>
            </g>
        </svg>
    </g>
</svg>