<svg xmlns="http://www.w3.org/2000/svg" version="1.1" xmlns:xlink="http://www.w3.org/1999/xlink" xmlns:svgjs="http://svgjs.dev/svgjs" width="1500" height="382" viewBox="0 0 1500 382"><g transform="matrix(1,0,0,1,-0.9090909090909918,-0.436297172361634)"><svg viewBox="0 0 396 101" data-background-color="#000000" preserveAspectRatio="xMidYMid meet" height="382" width="1500" xmlns="http://www.w3.org/2000/svg" xmlns:xlink="http://www.w3.org/1999/xlink"><g id="tight-bounds" transform="matrix(1,0,0,1,0.2400000000000091,0.1153560586610638)"><svg viewBox="0 0 395.52 100.76928788267784" height="100.76928788267784" width="395.52"><g><svg viewBox="0 0 569.4015979566457 145.0702708974262" height="100.76928788267784" width="395.52"><g transform="matrix(1,0,0,1,173.88159795664575,42.02448733198423)"><svg viewBox="0 0 395.52 61.02129623345775" height="61.02129623345775" width="395.52"><g id="textblocktransform"><svg viewBox="0 0 395.52 61.02129623345775" height="61.02129623345775" width="395.52" id="textblock"><g><svg viewBox="0 0 395.52 61.02129623345775" height="61.02129623345775" width="395.52"><g transform="matrix(1,0,0,1,0,0)"><svg width="395.52" viewBox="1.23 -33.48 221 34.10999999999999" height="61.02129623345775" data-palette-color="url(#eb6c7fa8-6ef1-41b6-bead-0276612ad365)"></svg></g></svg></g></svg></g></svg></g><g><svg viewBox="0 0 145.0702708974262 145.0702708974262" height="145.0702708974262" width="145.0702708974262"><g><svg></svg></g><g id="icon-0"><svg viewBox="0 0 145.0702708974262 145.0702708974262" height="145.0702708974262" width="145.0702708974262"><g></g><g transform="matrix(1,0,0,1,41.97557752972862,33.77818569324036)"><svg viewBox="0 0 61.11911583796898 77.51389951094549" height="77.51389951094549" width="61.11911583796898"><g><svg xmlns:x="http://ns.adobe.com/Extensibility/1.0/" xmlns:i="http://ns.adobe.com/AdobeIllustrator/10.0/" xmlns:graph="http://ns.adobe.com/Graphs/1.0/" xmlns="http://www.w3.org/2000/svg" xmlns:xlink="http://www.w3.org/1999/xlink" xmlns:a="http://ns.adobe.com/AdobeSVGViewerExtensions/3.0/" version="1.1" x="0" y="0" viewBox="16.500782584599918 7.401877674589706 67.09921741540008 85.09812232541029" enable-background="new 0 0 100 100" xml:space="preserve" height="77.51389951094549" width="61.11911583796898" class="icon-dxe-0" data-fill-palette-color="accent" id="dxe-0"></svg></g></svg></g></svg></g></svg></g></svg></g><defs></defs><mask id="82a6a746-6831-4897-b211-62ab96ff1624"><g id="SvgjsG1259"><svg viewBox="0 0 395.52 100.76928788267784" height="100.76928788267784" width="395.52"><g><svg viewBox="0 0 569.4015979566457 145.0702708974262" height="100.76928788267784" width="395.52"><g transform="matrix(1,0,0,1,173.88159795664575,42.02448733198423)"><svg viewBox="0 0 395.52 61.02129623345775" height="61.02129623345775" width="395.52"><g id="SvgjsG1258"><svg viewBox="0 0 395.52 61.02129623345775" height="61.02129623345775" width="395.52" id="SvgjsSvg1257"><g><svg viewBox="0 0 395.52 61.02129623345775" height="61.02129623345775" width="395.52"><g transform="matrix(1,0,0,1,0,0)"><svg width="395.52" viewBox="1.23 -33.48 221 34.10999999999999" height="61.02129623345775" data-palette-color="url(#eb6c7fa8-6ef1-41b6-bead-0276612ad365)"><path d="M5.43 0L1.23 0 11.23-31.95 17.78-31.95 27.8 0 23.6 0 14.83-29.15 14.2-29.15 5.43 0ZM21.78-9.43L7.23-9.43 7.23-12.88 21.78-12.88 21.78-9.43ZM36.17-14.93L36.17-14.93 35.25-18.05 36.25-18.1Q37.05-21.2 39-22.99 40.95-24.78 44.17-24.78L44.17-24.78Q44.97-24.78 45.61-24.65 46.25-24.53 46.75-24.35L46.75-24.35 47-20.43Q46.37-20.63 45.61-20.75 44.85-20.88 43.92-20.88L43.92-20.88Q41.17-20.88 39.14-19.35 37.1-17.82 36.17-14.93ZM36.37 0L32.32 0 32.32-24.4 36.27-24.4 36.07-17.2 36.37-16.9 36.37 0ZM60.67 0.63L60.67 0.63Q55.42 0.63 52.71-2.21 50-5.05 50-10.38L50-10.38 50-14.1Q50-19.4 52.72-22.23 55.45-25.05 60.67-25.05L60.67-25.05Q65.92-25.05 68.63-22.23 71.34-19.4 71.34-14.1L71.34-14.1 71.34-10.38Q71.34-5.05 68.63-2.21 65.92 0.63 60.67 0.63ZM60.67-2.68L60.67-2.68Q63.92-2.68 65.61-4.6 67.3-6.53 67.3-10.15L67.3-10.15 67.3-14.33Q67.3-17.93 65.61-19.84 63.92-21.75 60.67-21.75L60.67-21.75Q57.45-21.75 55.75-19.84 54.05-17.93 54.05-14.33L54.05-14.33 54.05-10.15Q54.05-6.53 55.75-4.6 57.45-2.68 60.67-2.68ZM111.49 0L107.44 0 107.44-15.28Q107.44-17.2 106.96-18.61 106.47-20.03 105.36-20.8 104.24-21.58 102.37-21.58L102.37-21.58Q100.59-21.58 99.29-20.85 97.99-20.13 97.19-18.91 96.39-17.7 96.07-16.15L96.07-16.15 95.44-19.03 95.94-19.03Q96.34-20.6 97.29-21.95 98.24-23.3 99.87-24.13 101.49-24.95 103.89-24.95L103.89-24.95Q106.62-24.95 108.28-23.88 109.94-22.8 110.72-20.74 111.49-18.68 111.49-15.73L111.49-15.73 111.49 0ZM81.02 0L76.97 0 76.97-24.4 81.02-24.4 80.84-18.55 81.02-18.3 81.02 0ZM96.24 0L92.22 0 92.22-15.28Q92.22-17.2 91.73-18.61 91.24-20.03 90.14-20.8 89.04-21.58 87.17-21.58L87.17-21.58Q85.37-21.58 84.07-20.85 82.77-20.13 81.97-18.89 81.17-17.65 80.84-16.07L80.84-16.07 80.09-18.95 80.99-18.95Q81.37-20.6 82.29-21.96 83.22-23.33 84.81-24.14 86.39-24.95 88.67-24.95L88.67-24.95Q92.04-24.95 93.81-23.2 95.57-21.45 96.02-18.1L96.02-18.1Q96.14-17.6 96.19-17.01 96.24-16.43 96.24-15.85L96.24-15.85 96.24 0ZM136.27 0L132.24 0 132.41-5.93 132.27-6.55 132.27-14.33 132.29-15.75Q132.29-18.73 130.78-20.15 129.27-21.58 125.99-21.58L125.99-21.58Q123.37-21.58 121.18-20.83 118.99-20.08 117.29-19.07L117.29-19.07 117.67-22.53Q118.62-23.1 119.93-23.66 121.24-24.23 122.93-24.6 124.62-24.98 126.64-24.98L126.64-24.98Q129.27-24.98 131.1-24.34 132.94-23.7 134.08-22.5 135.22-21.3 135.74-19.6 136.27-17.9 136.27-15.8L136.27-15.8 136.27 0ZM123.84 0.53L123.84 0.53Q120.22 0.53 118.28-1.24 116.34-3 116.34-6.28L116.34-6.28 116.34-7Q116.34-10.38 118.43-12.04 120.52-13.7 125.06-14.35L125.06-14.35 132.79-15.45 133.02-12.5 125.56-11.43Q122.77-11.03 121.56-10.06 120.37-9.1 120.37-7.23L120.37-7.23 120.37-6.83Q120.37-4.9 121.55-3.88 122.74-2.85 125.12-2.85L125.12-2.85Q127.22-2.85 128.72-3.58 130.22-4.3 131.14-5.53 132.06-6.75 132.39-8.25L132.39-8.25 133.02-5.5 132.24-5.5Q131.89-3.9 130.93-2.53 129.97-1.15 128.24-0.31 126.52 0.53 123.84 0.53ZM154.51 0L150.36 0 150.36-31.28 154.51-31.28 154.51 0ZM164.09-28.48L140.79-28.48 140.79-31.95 164.09-31.95 164.09-28.48ZM173.14 0L169.09 0 169.09-24.4 173.14-24.4 173.14 0ZM171.11-28.4L171.11-28.4Q169.86-28.4 169.25-29.06 168.64-29.73 168.64-30.88L168.64-30.88 168.64-31Q168.64-32.18 169.25-32.83 169.86-33.48 171.11-33.48L171.11-33.48Q172.36-33.48 172.99-32.83 173.61-32.18 173.61-31L173.61-31 173.61-30.88Q173.61-29.7 172.99-29.05 172.36-28.4 171.11-28.4ZM189.23 0.55L189.23 0.55Q183.98 0.55 181.42-2.29 178.86-5.13 178.86-10.33L178.86-10.33 178.86-14.13Q178.86-19.35 181.43-22.16 184.01-24.98 189.23-24.98L189.23-24.98Q190.78-24.98 192.06-24.69 193.33-24.4 194.35-23.94 195.36-23.48 196.06-22.98L196.06-22.98 196.41-19.45Q195.23-20.35 193.62-20.98 192.01-21.6 189.83-21.6L189.83-21.6Q186.33-21.6 184.62-19.66 182.91-17.73 182.91-14.03L182.91-14.03 182.91-10.43Q182.91-6.8 184.62-4.85 186.33-2.9 189.83-2.9L189.83-2.9Q192.08-2.9 193.72-3.53 195.36-4.15 196.63-5.05L196.63-5.05 196.26-1.48Q195.16-0.73 193.38-0.09 191.61 0.55 189.23 0.55ZM222.23 0L217.38 0 207.73-11.38 205.16-11.38 205.16-14.53 207.73-14.53 216.98-24.4 221.78-24.4 210.71-12.63 210.71-13.6 222.23 0ZM205.56 0L201.53 0 201.53-33.13 205.56-33.13 205.56 0Z" opacity="1" transform="matrix(1,0,0,1,0,0)" fill="white" class="wordmark-text-0" id="SvgjsPath1256"></path></svg></g></svg></g></svg></g></svg></g><g><svg viewBox="0 0 145.0702708974262 145.0702708974262" height="145.0702708974262" width="145.0702708974262"><g><svg></svg></g><g id="SvgjsG1255"><svg viewBox="0 0 145.0702708974262 145.0702708974262" height="145.0702708974262" width="145.0702708974262"><g><path d="M0 72.535c0-40.06 32.475-72.535 72.535-72.535 40.06 0 72.535 32.475 72.535 72.535 0 40.06-32.475 72.535-72.535 72.535-40.06 0-72.535-32.475-72.535-72.535zM72.535 139.567c37.021 0 67.032-30.011 67.032-67.032 0-37.021-30.011-67.032-67.032-67.032-37.021 0-67.032 30.011-67.032 67.032 0 37.021 30.011 67.032 67.032 67.032z" fill="black" stroke="transparent"></path></g><g transform="matrix(1,0,0,1,41.97557752972862,33.77818569324036)"><svg viewBox="0 0 61.11911583796898 77.51389951094549" height="77.51389951094549" width="61.11911583796898"><g><svg xmlns:x="http://ns.adobe.com/Extensibility/1.0/" xmlns:i="http://ns.adobe.com/AdobeIllustrator/10.0/" xmlns:graph="http://ns.adobe.com/Graphs/1.0/" xmlns="http://www.w3.org/2000/svg" xmlns:xlink="http://www.w3.org/1999/xlink" xmlns:a="http://ns.adobe.com/AdobeSVGViewerExtensions/3.0/" version="1.1" x="0" y="0" viewBox="16.500782584599918 7.401877674589706 67.09921741540008 85.09812232541029" enable-background="new 0 0 100 100" xml:space="preserve" height="77.51389951094549" width="61.11911583796898" class="icon-dxe-0" data-fill-palette-color="accent" id="SvgjsSvg1254"><g fill="black"><path d="M46.3 23.5S46.4 23.5 46.3 23.5C46.5 23.4 46.5 23.4 46.6 23.4S46.7 23.3 46.8 23.3 46.9 23.2 47 23.2 47.1 23.1 47.2 23.1L47.3 23S47.4 22.9 47.4 22.8 47.5 22.7 47.5 22.6 47.6 22.5 47.6 22.4 47.7 22.3 47.7 22.2 47.7 22.1 47.8 22V17.4C47.8 16.3 46.9 15.4 45.8 15.4H35.1C34 15.4 33.1 16.3 33.1 17.4V28.7H29C27.9 28.7 27 29.6 27 30.7V42C24.9 42.8 21 44.6 18.6 48.7S15.8 58 17.7 64.2L27.2 91.2C27.5 92 28.2 92.5 29.1 92.5H52.7C53.5 92.5 54.3 92 54.6 91.2L64 64.2C65.8 58.1 65.5 52.9 63.1 48.8 60.3 44.2 55.7 42.4 53.9 41.9V30.9C53.9 29.8 53 28.9 51.9 28.9H47.8V26.5C47.8 26.4 47.8 26.4 47.7 26.3 47.7 26.2 47.7 26.2 47.6 26.1 47.6 26 47.5 26 47.5 25.9S47.4 25.8 47.4 25.7 47.3 25.6 47.3 25.5L47.2 25.4S47.1 25.3 47 25.3 46.9 25.2 46.8 25.2 46.7 25.1 46.6 25.1 46.5 25 46.4 25H46.3C46 24.9 45.8 24.7 45.8 24.3 45.8 23.8 46 23.6 46.3 23.5M37.1 19.5H43.8V20.4C42.6 21.3 41.8 22.7 41.8 24.3S42.6 27.3 43.8 28.2V28.9H37.1zM59.7 50.8C61.6 53.9 61.7 58 60.3 62.9L51.3 88.6H30.4L21.4 63C19.9 58 20.1 53.9 21.9 50.8 24.1 47 28.2 45.8 29.1 45.5H52.4C53.4 45.8 57.4 47 59.7 50.8M49.9 41.6H30.9V32.8H49.9z" fill="black"></path><path d="M57.6 26.1H60C61.1 26.1 62 25.2 62 24.1S61.1 22.1 60 22.1H57.6C56.5 22.1 55.6 23 55.6 24.1S56.5 26.1 57.6 26.1" fill="black"></path><path d="M64.8 22.1C63.7 22.1 62.8 23 62.8 24.1S63.7 26.1 64.8 26.1H67.2C68.3 26.1 69.2 25.2 69.2 24.1S68.3 22.1 67.2 22.1z" fill="black"></path><path d="M70 24.1C70 25.2 70.9 26.1 72 26.1H74.4C75.5 26.1 76.4 25.2 76.4 24.1S75.5 22.1 74.4 22.1H72C70.9 22.1 70 23 70 24.1" fill="black"></path><path d="M83.6 24.1C83.6 23 82.7 22.1 81.6 22.1H79.2C78.1 22.1 77.2 23 77.2 24.1S78.1 26.1 79.2 26.1H81.6C82.7 26.1 83.6 25.2 83.6 24.1" fill="black"></path><path d="M57.6 21.2C57.9 21.2 58.2 21.1 58.5 21L60.6 20C61.6 19.5 62 18.3 61.5 17.3S59.8 15.9 58.8 16.4L56.7 17.4C55.7 17.9 55.3 19.1 55.8 20.1 56.2 20.8 56.9 21.2 57.6 21.2" fill="black"></path><path d="M64.9 13.5L62.8 14.5C61.8 15 61.4 16.2 61.9 17.2 62.2 17.9 63 18.3 63.7 18.3 64 18.3 64.3 18.2 64.6 18.1L66.7 17.1C67.7 16.6 68.1 15.4 67.6 14.4S65.9 13 64.9 13.5" fill="black"></path><path d="M71 10.5L68.9 11.5C67.9 12 67.5 13.2 68 14.2 68.3 14.9 69.1 15.3 69.8 15.3 70.1 15.3 70.4 15.2 70.7 15.1L72.8 14.1C73.8 13.6 74.2 12.4 73.7 11.4 73.2 10.5 72 10.1 71 10.5" fill="black"></path><path d="M77.1 7.6L75 8.6C74 9.1 73.6 10.3 74.1 11.3 74.4 12 75.2 12.4 75.9 12.4 76.2 12.4 76.5 12.3 76.8 12.2L78.9 11.2C79.9 10.7 80.3 9.5 79.8 8.5 79.3 7.6 78.1 7.1 77.1 7.6" fill="black"></path><path d="M77.1 40.7C77.4 40.8 77.7 40.9 78 40.9 78.7 40.9 79.5 40.5 79.8 39.8 80.3 38.8 79.9 37.6 78.9 37.1L76.8 36.1C75.8 35.6 74.6 36 74.1 37S74 39.2 75 39.7z" fill="black"></path><path d="M71 37.7C71.3 37.8 71.6 37.9 71.9 37.9 72.6 37.9 73.4 37.5 73.7 36.8 74.2 35.8 73.8 34.6 72.8 34.1L70.7 33.1C69.7 32.6 68.5 33 68 34S67.9 36.2 68.9 36.7z" fill="black"></path><path d="M66.6 31.2L64.5 30.2C63.5 29.7 62.3 30.1 61.8 31.1S61.7 33.3 62.7 33.8L64.8 34.8C65.1 34.9 65.4 35 65.7 35 66.4 35 67.2 34.6 67.5 33.9 68.1 32.9 67.6 31.7 66.6 31.2" fill="black"></path><path d="M60.5 28.3L58.4 27.3C57.4 26.8 56.2 27.2 55.7 28.2S55.6 30.4 56.6 30.9L58.7 31.9C59 32 59.3 32.1 59.6 32.1 60.3 32.1 61.1 31.7 61.4 31 62 29.9 61.5 28.7 60.5 28.3" fill="black"></path></g></svg></g></svg></g></svg></g></svg></g></svg></g><defs><mask></mask></defs></svg><rect width="395.52" height="100.76928788267784" fill="black" stroke="none" visibility="hidden"></rect></g></mask><linearGradient x1="0.054" x2="0.941" y1="0.5" y2="0.5" id="eb6c7fa8-6ef1-41b6-bead-0276612ad365"><stop stop-color="#864d25" offset="0"></stop><stop stop-color="#f1c4b3" offset="0.498"></stop><stop stop-color="#864d25" offset="1"></stop></linearGradient><rect width="395.52" height="100.76928788267784" fill="url(#eb6c7fa8-6ef1-41b6-bead-0276612ad365)" mask="url(#82a6a746-6831-4897-b211-62ab96ff1624)" data-fill-palette-color="primary"></rect><mask id="15f730d3-ac0e-4347-9d7c-4a48fc0631eb"><g id="SvgjsG1282"><svg viewBox="0 0 395.52 100.76928788267784" height="100.76928788267784" width="395.52"><g><svg viewBox="0 0 569.4015979566457 145.0702708974262" height="100.76928788267784" width="395.52"><g transform="matrix(1,0,0,1,173.88159795664575,42.02448733198423)"><svg viewBox="0 0 395.52 61.02129623345775" height="61.02129623345775" width="395.52"><g id="SvgjsG1281"><svg viewBox="0 0 395.52 61.02129623345775" height="61.02129623345775" width="395.52" id="SvgjsSvg1280"><g><svg viewBox="0 0 395.52 61.02129623345775" height="61.02129623345775" width="395.52"><g transform="matrix(1,0,0,1,0,0)"><svg width="395.52" viewBox="1.23 -33.48 221 34.10999999999999" height="61.02129623345775" data-palette-color="url(#eb6c7fa8-6ef1-41b6-bead-0276612ad365)"></svg></g></svg></g></svg></g></svg></g><g><svg viewBox="0 0 145.0702708974262 145.0702708974262" height="145.0702708974262" width="145.0702708974262"><g><svg></svg></g><g id="SvgjsG1279"><svg viewBox="0 0 145.0702708974262 145.0702708974262" height="145.0702708974262" width="145.0702708974262"><g><path d="M0 72.535c0-40.06 32.475-72.535 72.535-72.535 40.06 0 72.535 32.475 72.535 72.535 0 40.06-32.475 72.535-72.535 72.535-40.06 0-72.535-32.475-72.535-72.535zM72.535 139.567c37.021 0 67.032-30.011 67.032-67.032 0-37.021-30.011-67.032-67.032-67.032-37.021 0-67.032 30.011-67.032 67.032 0 37.021 30.011 67.032 67.032 67.032z" fill="white" stroke="transparent"></path></g><g transform="matrix(1,0,0,1,41.97557752972862,33.77818569324036)"><svg viewBox="0 0 61.11911583796898 77.51389951094549" height="77.51389951094549" width="61.11911583796898"><g><svg xmlns:x="http://ns.adobe.com/Extensibility/1.0/" xmlns:i="http://ns.adobe.com/AdobeIllustrator/10.0/" xmlns:graph="http://ns.adobe.com/Graphs/1.0/" xmlns="http://www.w3.org/2000/svg" xmlns:xlink="http://www.w3.org/1999/xlink" xmlns:a="http://ns.adobe.com/AdobeSVGViewerExtensions/3.0/" version="1.1" x="0" y="0" viewBox="16.500782584599918 7.401877674589706 67.09921741540008 85.09812232541029" enable-background="new 0 0 100 100" xml:space="preserve" height="77.51389951094549" width="61.11911583796898" class="icon-dxe-0" data-fill-palette-color="accent" id="SvgjsSvg1278"><g fill="white"><path d="M46.3 23.5S46.4 23.5 46.3 23.5C46.5 23.4 46.5 23.4 46.6 23.4S46.7 23.3 46.8 23.3 46.9 23.2 47 23.2 47.1 23.1 47.2 23.1L47.3 23S47.4 22.9 47.4 22.8 47.5 22.7 47.5 22.6 47.6 22.5 47.6 22.4 47.7 22.3 47.7 22.2 47.7 22.1 47.8 22V17.4C47.8 16.3 46.9 15.4 45.8 15.4H35.1C34 15.4 33.1 16.3 33.1 17.4V28.7H29C27.9 28.7 27 29.6 27 30.7V42C24.9 42.8 21 44.6 18.6 48.7S15.8 58 17.7 64.2L27.2 91.2C27.5 92 28.2 92.5 29.1 92.5H52.7C53.5 92.5 54.3 92 54.6 91.2L64 64.2C65.8 58.1 65.5 52.9 63.1 48.8 60.3 44.2 55.7 42.4 53.9 41.9V30.9C53.9 29.8 53 28.9 51.9 28.9H47.8V26.5C47.8 26.4 47.8 26.4 47.7 26.3 47.7 26.2 47.7 26.2 47.6 26.1 47.6 26 47.5 26 47.5 25.9S47.4 25.8 47.4 25.7 47.3 25.6 47.3 25.5L47.2 25.4S47.1 25.3 47 25.3 46.9 25.2 46.8 25.2 46.7 25.1 46.6 25.1 46.5 25 46.4 25H46.3C46 24.9 45.8 24.7 45.8 24.3 45.8 23.8 46 23.6 46.3 23.5M37.1 19.5H43.8V20.4C42.6 21.3 41.8 22.7 41.8 24.3S42.6 27.3 43.8 28.2V28.9H37.1zM59.7 50.8C61.6 53.9 61.7 58 60.3 62.9L51.3 88.6H30.4L21.4 63C19.9 58 20.1 53.9 21.9 50.8 24.1 47 28.2 45.8 29.1 45.5H52.4C53.4 45.8 57.4 47 59.7 50.8M49.9 41.6H30.9V32.8H49.9z" fill="white"></path><path d="M57.6 26.1H60C61.1 26.1 62 25.2 62 24.1S61.1 22.1 60 22.1H57.6C56.5 22.1 55.6 23 55.6 24.1S56.5 26.1 57.6 26.1" fill="white"></path><path d="M64.8 22.1C63.7 22.1 62.8 23 62.8 24.1S63.7 26.1 64.8 26.1H67.2C68.3 26.1 69.2 25.2 69.2 24.1S68.3 22.1 67.2 22.1z" fill="white"></path><path d="M70 24.1C70 25.2 70.9 26.1 72 26.1H74.4C75.5 26.1 76.4 25.2 76.4 24.1S75.5 22.1 74.4 22.1H72C70.9 22.1 70 23 70 24.1" fill="white"></path><path d="M83.6 24.1C83.6 23 82.7 22.1 81.6 22.1H79.2C78.1 22.1 77.2 23 77.2 24.1S78.1 26.1 79.2 26.1H81.6C82.7 26.1 83.6 25.2 83.6 24.1" fill="white"></path><path d="M57.6 21.2C57.9 21.2 58.2 21.1 58.5 21L60.6 20C61.6 19.5 62 18.3 61.5 17.3S59.8 15.9 58.8 16.4L56.7 17.4C55.7 17.9 55.3 19.1 55.8 20.1 56.2 20.8 56.9 21.2 57.6 21.2" fill="white"></path><path d="M64.9 13.5L62.8 14.5C61.8 15 61.4 16.2 61.9 17.2 62.2 17.9 63 18.3 63.7 18.3 64 18.3 64.3 18.2 64.6 18.1L66.7 17.1C67.7 16.6 68.1 15.4 67.6 14.4S65.9 13 64.9 13.5" fill="white"></path><path d="M71 10.5L68.9 11.5C67.9 12 67.5 13.2 68 14.2 68.3 14.9 69.1 15.3 69.8 15.3 70.1 15.3 70.4 15.2 70.7 15.1L72.8 14.1C73.8 13.6 74.2 12.4 73.7 11.4 73.2 10.5 72 10.1 71 10.5" fill="white"></path><path d="M77.1 7.6L75 8.6C74 9.1 73.6 10.3 74.1 11.3 74.4 12 75.2 12.4 75.9 12.4 76.2 12.4 76.5 12.3 76.8 12.2L78.9 11.2C79.9 10.7 80.3 9.5 79.8 8.5 79.3 7.6 78.1 7.1 77.1 7.6" fill="white"></path><path d="M77.1 40.7C77.4 40.8 77.7 40.9 78 40.9 78.7 40.9 79.5 40.5 79.8 39.8 80.3 38.8 79.9 37.6 78.9 37.1L76.8 36.1C75.8 35.6 74.6 36 74.1 37S74 39.2 75 39.7z" fill="white"></path><path d="M71 37.7C71.3 37.8 71.6 37.9 71.9 37.9 72.6 37.9 73.4 37.5 73.7 36.8 74.2 35.8 73.8 34.6 72.8 34.1L70.7 33.1C69.7 32.6 68.5 33 68 34S67.9 36.2 68.9 36.7z" fill="white"></path><path d="M66.6 31.2L64.5 30.2C63.5 29.7 62.3 30.1 61.8 31.1S61.7 33.3 62.7 33.8L64.8 34.8C65.1 34.9 65.4 35 65.7 35 66.4 35 67.2 34.6 67.5 33.9 68.1 32.9 67.6 31.7 66.6 31.2" fill="white"></path><path d="M60.5 28.3L58.4 27.3C57.4 26.8 56.2 27.2 55.7 28.2S55.6 30.4 56.6 30.9L58.7 31.9C59 32 59.3 32.1 59.6 32.1 60.3 32.1 61.1 31.7 61.4 31 62 29.9 61.5 28.7 60.5 28.3" fill="white"></path></g></svg></g></svg></g></svg></g></svg></g></svg></g><defs><mask></mask></defs><mask><g id="SvgjsG1277"><svg viewBox="0 0 395.52 100.76928788267784" height="100.76928788267784" width="395.52"><g><svg viewBox="0 0 569.4015979566457 145.0702708974262" height="100.76928788267784" width="395.52"><g transform="matrix(1,0,0,1,173.88159795664575,42.02448733198423)"><svg viewBox="0 0 395.52 61.02129623345775" height="61.02129623345775" width="395.52"><g id="SvgjsG1276"><svg viewBox="0 0 395.52 61.02129623345775" height="61.02129623345775" width="395.52" id="SvgjsSvg1275"><g><svg viewBox="0 0 395.52 61.02129623345775" height="61.02129623345775" width="395.52"><g transform="matrix(1,0,0,1,0,0)"><svg width="395.52" viewBox="1.23 -33.48 221 34.10999999999999" height="61.02129623345775" data-palette-color="url(#eb6c7fa8-6ef1-41b6-bead-0276612ad365)"><path d="M5.43 0L1.23 0 11.23-31.95 17.78-31.95 27.8 0 23.6 0 14.83-29.15 14.2-29.15 5.43 0ZM21.78-9.43L7.23-9.43 7.23-12.88 21.78-12.88 21.78-9.43ZM36.17-14.93L36.17-14.93 35.25-18.05 36.25-18.1Q37.05-21.2 39-22.99 40.95-24.78 44.17-24.78L44.17-24.78Q44.97-24.78 45.61-24.65 46.25-24.53 46.75-24.35L46.75-24.35 47-20.43Q46.37-20.63 45.61-20.75 44.85-20.88 43.92-20.88L43.92-20.88Q41.17-20.88 39.14-19.35 37.1-17.82 36.17-14.93ZM36.37 0L32.32 0 32.32-24.4 36.27-24.4 36.07-17.2 36.37-16.9 36.37 0ZM60.67 0.63L60.67 0.63Q55.42 0.63 52.71-2.21 50-5.05 50-10.38L50-10.38 50-14.1Q50-19.4 52.72-22.23 55.45-25.05 60.67-25.05L60.67-25.05Q65.92-25.05 68.63-22.23 71.34-19.4 71.34-14.1L71.34-14.1 71.34-10.38Q71.34-5.05 68.63-2.21 65.92 0.63 60.67 0.63ZM60.67-2.68L60.67-2.68Q63.92-2.68 65.61-4.6 67.3-6.53 67.3-10.15L67.3-10.15 67.3-14.33Q67.3-17.93 65.61-19.84 63.92-21.75 60.67-21.75L60.67-21.75Q57.45-21.75 55.75-19.84 54.05-17.93 54.05-14.33L54.05-14.33 54.05-10.15Q54.05-6.53 55.75-4.6 57.45-2.68 60.67-2.68ZM111.49 0L107.44 0 107.44-15.28Q107.44-17.2 106.96-18.61 106.47-20.03 105.36-20.8 104.24-21.58 102.37-21.58L102.37-21.58Q100.59-21.58 99.29-20.85 97.99-20.13 97.19-18.91 96.39-17.7 96.07-16.15L96.07-16.15 95.44-19.03 95.94-19.03Q96.34-20.6 97.29-21.95 98.24-23.3 99.87-24.13 101.49-24.95 103.89-24.95L103.89-24.95Q106.62-24.95 108.28-23.88 109.94-22.8 110.72-20.74 111.49-18.68 111.49-15.73L111.49-15.73 111.49 0ZM81.02 0L76.97 0 76.97-24.4 81.02-24.4 80.84-18.55 81.02-18.3 81.02 0ZM96.24 0L92.22 0 92.22-15.28Q92.22-17.2 91.73-18.61 91.24-20.03 90.14-20.8 89.04-21.58 87.17-21.58L87.17-21.58Q85.37-21.58 84.07-20.85 82.77-20.13 81.97-18.89 81.17-17.65 80.84-16.07L80.84-16.07 80.09-18.95 80.99-18.95Q81.37-20.6 82.29-21.96 83.22-23.33 84.81-24.14 86.39-24.95 88.67-24.95L88.67-24.95Q92.04-24.95 93.81-23.2 95.57-21.45 96.02-18.1L96.02-18.1Q96.14-17.6 96.19-17.01 96.24-16.43 96.24-15.85L96.24-15.85 96.24 0ZM136.27 0L132.24 0 132.41-5.93 132.27-6.55 132.27-14.33 132.29-15.75Q132.29-18.73 130.78-20.15 129.27-21.58 125.99-21.58L125.99-21.58Q123.37-21.58 121.18-20.83 118.99-20.08 117.29-19.07L117.29-19.07 117.67-22.53Q118.62-23.1 119.93-23.66 121.24-24.23 122.93-24.6 124.62-24.98 126.64-24.98L126.64-24.98Q129.27-24.98 131.1-24.34 132.94-23.7 134.08-22.5 135.22-21.3 135.74-19.6 136.27-17.9 136.27-15.8L136.27-15.8 136.27 0ZM123.84 0.53L123.84 0.53Q120.22 0.53 118.28-1.24 116.34-3 116.34-6.28L116.34-6.28 116.34-7Q116.34-10.38 118.43-12.04 120.52-13.7 125.06-14.35L125.06-14.35 132.79-15.45 133.02-12.5 125.56-11.43Q122.77-11.03 121.56-10.06 120.37-9.1 120.37-7.23L120.37-7.23 120.37-6.83Q120.37-4.9 121.55-3.88 122.74-2.85 125.12-2.85L125.12-2.85Q127.22-2.85 128.72-3.58 130.22-4.3 131.14-5.53 132.06-6.75 132.39-8.25L132.39-8.25 133.02-5.5 132.24-5.5Q131.89-3.9 130.93-2.53 129.97-1.15 128.24-0.31 126.52 0.53 123.84 0.53ZM154.51 0L150.36 0 150.36-31.28 154.51-31.28 154.51 0ZM164.09-28.48L140.79-28.48 140.79-31.95 164.09-31.95 164.09-28.48ZM173.14 0L169.09 0 169.09-24.4 173.14-24.4 173.14 0ZM171.11-28.4L171.11-28.4Q169.86-28.4 169.25-29.06 168.64-29.73 168.64-30.88L168.64-30.88 168.64-31Q168.64-32.18 169.25-32.83 169.86-33.48 171.11-33.48L171.11-33.48Q172.36-33.48 172.99-32.83 173.61-32.18 173.61-31L173.61-31 173.61-30.88Q173.61-29.7 172.99-29.05 172.36-28.4 171.11-28.4ZM189.23 0.55L189.23 0.55Q183.98 0.55 181.42-2.29 178.86-5.13 178.86-10.33L178.86-10.33 178.86-14.13Q178.86-19.35 181.43-22.16 184.01-24.98 189.23-24.98L189.23-24.98Q190.78-24.98 192.06-24.69 193.33-24.4 194.35-23.94 195.36-23.48 196.06-22.98L196.06-22.98 196.41-19.45Q195.23-20.35 193.62-20.98 192.01-21.6 189.83-21.6L189.83-21.6Q186.33-21.6 184.62-19.66 182.91-17.73 182.91-14.03L182.91-14.03 182.91-10.43Q182.91-6.8 184.62-4.85 186.33-2.9 189.83-2.9L189.83-2.9Q192.08-2.9 193.72-3.53 195.36-4.15 196.63-5.05L196.63-5.05 196.26-1.48Q195.16-0.73 193.38-0.09 191.61 0.55 189.23 0.55ZM222.23 0L217.38 0 207.73-11.38 205.16-11.38 205.16-14.53 207.73-14.53 216.98-24.4 221.78-24.4 210.71-12.63 210.71-13.6 222.23 0ZM205.56 0L201.53 0 201.53-33.13 205.56-33.13 205.56 0Z" opacity="1" transform="matrix(1,0,0,1,0,0)" fill="black" class="wordmark-text-0" id="SvgjsPath1274"></path></svg></g></svg></g></svg></g></svg></g><g><svg viewBox="0 0 145.0702708974262 145.0702708974262" height="145.0702708974262" width="145.0702708974262"><g><svg></svg></g><g id="SvgjsG1273"><svg viewBox="0 0 145.0702708974262 145.0702708974262" height="145.0702708974262" width="145.0702708974262"><g><path d="M0 72.535c0-40.06 32.475-72.535 72.535-72.535 40.06 0 72.535 32.475 72.535 72.535 0 40.06-32.475 72.535-72.535 72.535-40.06 0-72.535-32.475-72.535-72.535zM72.535 139.567c37.021 0 67.032-30.011 67.032-67.032 0-37.021-30.011-67.032-67.032-67.032-37.021 0-67.032 30.011-67.032 67.032 0 37.021 30.011 67.032 67.032 67.032z" fill="black" stroke="transparent"></path></g><g transform="matrix(1,0,0,1,41.97557752972862,33.77818569324036)"><svg viewBox="0 0 61.11911583796898 77.51389951094549" height="77.51389951094549" width="61.11911583796898"><g><svg xmlns:x="http://ns.adobe.com/Extensibility/1.0/" xmlns:i="http://ns.adobe.com/AdobeIllustrator/10.0/" xmlns:graph="http://ns.adobe.com/Graphs/1.0/" xmlns="http://www.w3.org/2000/svg" xmlns:xlink="http://www.w3.org/1999/xlink" xmlns:a="http://ns.adobe.com/AdobeSVGViewerExtensions/3.0/" version="1.1" x="0" y="0" viewBox="16.500782584599918 7.401877674589706 67.09921741540008 85.09812232541029" enable-background="new 0 0 100 100" xml:space="preserve" height="77.51389951094549" width="61.11911583796898" class="icon-dxe-0" data-fill-palette-color="accent" id="SvgjsSvg1272"><g fill="black"><path d="M46.3 23.5S46.4 23.5 46.3 23.5C46.5 23.4 46.5 23.4 46.6 23.4S46.7 23.3 46.8 23.3 46.9 23.2 47 23.2 47.1 23.1 47.2 23.1L47.3 23S47.4 22.9 47.4 22.8 47.5 22.7 47.5 22.6 47.6 22.5 47.6 22.4 47.7 22.3 47.7 22.2 47.7 22.1 47.8 22V17.4C47.8 16.3 46.9 15.4 45.8 15.4H35.1C34 15.4 33.1 16.3 33.1 17.4V28.7H29C27.9 28.7 27 29.6 27 30.7V42C24.9 42.8 21 44.6 18.6 48.7S15.8 58 17.7 64.2L27.2 91.2C27.5 92 28.2 92.5 29.1 92.5H52.7C53.5 92.5 54.3 92 54.6 91.2L64 64.2C65.8 58.1 65.5 52.9 63.1 48.8 60.3 44.2 55.7 42.4 53.9 41.9V30.9C53.9 29.8 53 28.9 51.9 28.9H47.8V26.5C47.8 26.4 47.8 26.4 47.7 26.3 47.7 26.2 47.7 26.2 47.6 26.1 47.6 26 47.5 26 47.5 25.9S47.4 25.8 47.4 25.7 47.3 25.6 47.3 25.5L47.2 25.4S47.1 25.3 47 25.3 46.9 25.2 46.8 25.2 46.7 25.1 46.6 25.1 46.5 25 46.4 25H46.3C46 24.9 45.8 24.7 45.8 24.3 45.8 23.8 46 23.6 46.3 23.5M37.1 19.5H43.8V20.4C42.6 21.3 41.8 22.7 41.8 24.3S42.6 27.3 43.8 28.2V28.9H37.1zM59.7 50.8C61.6 53.9 61.7 58 60.3 62.9L51.3 88.6H30.4L21.4 63C19.9 58 20.1 53.9 21.9 50.8 24.1 47 28.2 45.8 29.1 45.5H52.4C53.4 45.8 57.4 47 59.7 50.8M49.9 41.6H30.9V32.8H49.9z" fill="black"></path><path d="M57.6 26.1H60C61.1 26.1 62 25.2 62 24.1S61.1 22.1 60 22.1H57.6C56.5 22.1 55.6 23 55.6 24.1S56.5 26.1 57.6 26.1" fill="black"></path><path d="M64.8 22.1C63.7 22.1 62.8 23 62.8 24.1S63.7 26.1 64.8 26.1H67.2C68.3 26.1 69.2 25.2 69.2 24.1S68.3 22.1 67.2 22.1z" fill="black"></path><path d="M70 24.1C70 25.2 70.9 26.1 72 26.1H74.4C75.5 26.1 76.4 25.2 76.4 24.1S75.5 22.1 74.4 22.1H72C70.9 22.1 70 23 70 24.1" fill="black"></path><path d="M83.6 24.1C83.6 23 82.7 22.1 81.6 22.1H79.2C78.1 22.1 77.2 23 77.2 24.1S78.1 26.1 79.2 26.1H81.6C82.7 26.1 83.6 25.2 83.6 24.1" fill="black"></path><path d="M57.6 21.2C57.9 21.2 58.2 21.1 58.5 21L60.6 20C61.6 19.5 62 18.3 61.5 17.3S59.8 15.9 58.8 16.4L56.7 17.4C55.7 17.9 55.3 19.1 55.8 20.1 56.2 20.8 56.9 21.2 57.6 21.2" fill="black"></path><path d="M64.9 13.5L62.8 14.5C61.8 15 61.4 16.2 61.9 17.2 62.2 17.9 63 18.3 63.7 18.3 64 18.3 64.3 18.2 64.6 18.1L66.7 17.1C67.7 16.6 68.1 15.4 67.6 14.4S65.9 13 64.9 13.5" fill="black"></path><path d="M71 10.5L68.9 11.5C67.9 12 67.5 13.2 68 14.2 68.3 14.9 69.1 15.3 69.8 15.3 70.1 15.3 70.4 15.2 70.7 15.1L72.8 14.1C73.8 13.6 74.2 12.4 73.7 11.4 73.2 10.5 72 10.1 71 10.5" fill="black"></path><path d="M77.1 7.6L75 8.6C74 9.1 73.6 10.3 74.1 11.3 74.4 12 75.2 12.4 75.9 12.4 76.2 12.4 76.5 12.3 76.8 12.2L78.9 11.2C79.9 10.7 80.3 9.5 79.8 8.5 79.3 7.6 78.1 7.1 77.1 7.6" fill="black"></path><path d="M77.1 40.7C77.4 40.8 77.7 40.9 78 40.9 78.7 40.9 79.5 40.5 79.8 39.8 80.3 38.8 79.9 37.6 78.9 37.1L76.8 36.1C75.8 35.6 74.6 36 74.1 37S74 39.2 75 39.7z" fill="black"></path><path d="M71 37.7C71.3 37.8 71.6 37.9 71.9 37.9 72.6 37.9 73.4 37.5 73.7 36.8 74.2 35.8 73.8 34.6 72.8 34.1L70.7 33.1C69.7 32.6 68.5 33 68 34S67.9 36.2 68.9 36.7z" fill="black"></path><path d="M66.6 31.2L64.5 30.2C63.5 29.7 62.3 30.1 61.8 31.1S61.7 33.3 62.7 33.8L64.8 34.8C65.1 34.9 65.4 35 65.7 35 66.4 35 67.2 34.6 67.5 33.9 68.1 32.9 67.6 31.7 66.6 31.2" fill="black"></path><path d="M60.5 28.3L58.4 27.3C57.4 26.8 56.2 27.2 55.7 28.2S55.6 30.4 56.6 30.9L58.7 31.9C59 32 59.3 32.1 59.6 32.1 60.3 32.1 61.1 31.7 61.4 31 62 29.9 61.5 28.7 60.5 28.3" fill="black"></path></g></svg></g></svg></g></svg></g></svg></g></svg></g><defs><mask></mask></defs></svg><rect width="395.52" height="100.76928788267784" fill="black" stroke="none" visibility="hidden"></rect></g></mask></svg><rect width="395.52" height="100.76928788267784" fill="black" stroke="none" visibility="hidden"></rect></g></mask><linearGradient x1="0.054" x2="0.941" y1="0.5" y2="0.5" id="25c7fcb5-bdef-47f4-9a5b-758fc30df395"><stop stop-color="#864d25" offset="0"></stop><stop stop-color="#f1c4b3" offset="0.498"></stop><stop stop-color="#864d25" offset="1"></stop></linearGradient><rect width="395.52" height="100.76928788267784" fill="url(#25c7fcb5-bdef-47f4-9a5b-758fc30df395)" mask="url(#15f730d3-ac0e-4347-9d7c-4a48fc0631eb)" data-fill-palette-color="accent"></rect></svg><rect width="395.52" height="100.76928788267784" fill="none" stroke="none" visibility="hidden"></rect></g></svg></g></svg>